<?xml version="1.0" encoding="UTF-8"?>
<mxfile host="app.diagrams.net" modified="2024-01-01T00:00:00.000Z" agent="Draw.io" version="22.0.0">
  <diagram name="NASDAQ Trading Platform Architecture" id="architecture">
    <mxGraphModel dx="1422" dy="794" grid="1" gridSize="10" guides="1" tooltips="1" connect="1" arrows="1" fold="1" page="1" pageScale="1" pageWidth="3000" pageHeight="2000" math="0" shadow="0">
      <root>
        <mxCell id="0" />
        <mxCell id="1" parent="0" />
        
        <!-- TRADINGVIEW LAYER -->
        <mxCell id="tradingview-layer" value="TRADINGVIEW INDICATORS" style="swimlane;fillColor=#e1d5e7;strokeColor=#9673a6;fontSize=16;fontStyle=1" vertex="1" parent="1">
          <mxGeometry x="40" y="40" width="600" height="300" as="geometry" />
        </mxCell>
        
        <!-- Enhanced FVG Indicator -->
        <mxCell id="fvg-indicator" value="Enhanced FVG Indicator V2&#xa;(Signal Generation)&#xa;&#xa;• FVG/IFVG Detection&#xa;• HTF Bias Filtering&#xa;• Engulfing Patterns&#xa;• Session Filtering" style="rounded=1;whiteSpace=wrap;html=1;fillColor=#dae8fc;strokeColor=#6c8ebf;fontSize=12;align=left;verticalAlign=top;" vertex="1" parent="tradingview-layer">
          <mxGeometry x="20" y="40" width="260" height="120" as="geometry" />
        </mxCell>
        
        <!-- Price Streamer -->
        <mxCell id="price-streamer" value="Real-Time Price Streamer&#xa;(1-Second Updates)&#xa;&#xa;• Live Price Feed&#xa;• Session Detection&#xa;• 15 alerts/3min limit&#xa;• Priority Sessions" style="rounded=1;whiteSpace=wrap;html=1;fillColor=#d5e8d4;strokeColor=#82b366;fontSize=12;align=left;verticalAlign=top;" vertex="1" parent="tradingview-layer">
          <mxGeometry x="320" y="40" width="260" height="120" as="geometry" />
        </mxCell>
        
        <!-- Webhook URLs -->
        <mxCell id="fvg-webhook" value="/api/live-signals-v2" style="text;html=1;strokeColor=none;fillColor=none;align=center;verticalAlign=middle;whiteSpace=wrap;rounded=0;fontSize=10;fontStyle=2" vertex="1" parent="tradingview-layer">
          <mxGeometry x="20" y="170" width="260" height="20" as="geometry" />
        </mxCell>

        <mxCell id="price-webhook" value="/api/realtime-price" style="text;html=1;strokeColor=none;fillColor=none;align=center;verticalAlign=middle;whiteSpace=wrap;rounded=0;fontSize=10;fontStyle=2" vertex="1" parent="tradingview-layer">
          <mxGeometry x="320" y="170" width="260" height="20" as="geometry" />
        </mxCell>
        
        <!-- WEBHOOK LAYER -->
        <mxCell id="webhook-layer" value="WEBHOOK ENDPOINTS (Railway Cloud)" style="swimlane;fillColor=#fff2cc;strokeColor=#d6b656;fontSize=16;fontStyle=1" vertex="1" parent="1">
          <mxGeometry x="40" y="400" width="600" height="280" as="geometry" />
        </mxCell>
        
        <!-- V2 Signal Webhook -->
        <mxCell id="v2-webhook" value="POST /api/live-signals-v2&#xa;&#xa;Receives:&#xa;• signal_type (Bullish/Bearish)&#xa;• price&#xa;• timestamp&#xa;• session&#xa;&#xa;Stores: signal_lab_v2_trades" style="rounded=1;whiteSpace=wrap;html=1;fillColor=#dae8fc;strokeColor=#6c8ebf;fontSize=11;align=left;verticalAlign=top;" vertex="1" parent="webhook-layer">
          <mxGeometry x="20" y="40" width="180" height="140" as="geometry" />
        </mxCell>
        
        <!-- Price Webhook -->
        <mxCell id="price-webhook-endpoint" value="POST /api/realtime-price&#xa;&#xa;Receives:&#xa;• symbol (NQ)&#xa;• price&#xa;• timestamp&#xa;• session&#xa;• volume, bid, ask&#xa;&#xa;Stores: realtime_prices" style="rounded=1;whiteSpace=wrap;html=1;fillColor=#d5e8d4;strokeColor=#82b366;fontSize=11;align=left;verticalAlign=top;" vertex="1" parent="webhook-layer">
          <mxGeometry x="220" y="40" width="180" height="140" as="geometry" />
        </mxCell>

        <!-- Health Monitoring -->
        <mxCell id="webhook-health" value="GET /api/webhook-health&#xa;GET /api/webhook-stats" style="rounded=1;whiteSpace=wrap;html=1;fillColor=#f8cecc;strokeColor=#b85450;fontSize=11;" vertex="1" parent="webhook-layer">
          <mxGeometry x="420" y="40" width="160" height="60" as="geometry" />
        </mxCell>
        
        <!-- DATABASE LAYER -->
        <mxCell id="database-layer" value="POSTGRESQL DATABASE (Railway)" style="swimlane;fillColor=#f5f5f5;strokeColor=#666666;fontSize=16;fontStyle=1;fontColor=#333333;" vertex="1" parent="1">
          <mxGeometry x="40" y="740" width="600" height="400" as="geometry" />
        </mxCell>
        
        <!-- Main Tables -->
        <mxCell id="v2-trades-table" value="signal_lab_v2_trades&#xa;&#xa;• trade_uuid (PK)&#xa;• signal_type&#xa;• signal_price&#xa;• signal_timestamp&#xa;• session&#xa;• trade_status&#xa;• confirmation_price&#xa;• entry_price&#xa;• stop_loss&#xa;• current_mfe&#xa;• max_mfe" style="rounded=0;whiteSpace=wrap;html=1;fillColor=#dae8fc;strokeColor=#6c8ebf;fontSize=10;align=left;verticalAlign=top;" vertex="1" parent="database-layer">
          <mxGeometry x="20" y="40" width="180" height="180" as="geometry" />
        </mxCell>
        
        <mxCell id="realtime-prices-table" value="realtime_prices&#xa;&#xa;• id (PK)&#xa;• symbol&#xa;• price&#xa;• timestamp&#xa;• session&#xa;• volume&#xa;• bid&#xa;• ask&#xa;• change&#xa;• created_at" style="rounded=0;whiteSpace=wrap;html=1;fillColor=#d5e8d4;strokeColor=#82b366;fontSize=10;align=left;verticalAlign=top;" vertex="1" parent="database-layer">
          <mxGeometry x="220" y="40" width="180" height="180" as="geometry" />
        </mxCell>

        <mxCell id="live-signals-table" value="live_signals (V1)&#xa;&#xa;• id (PK)&#xa;• signal_type&#xa;• price&#xa;• timestamp&#xa;• session&#xa;• htf_alignment&#xa;• created_at" style="rounded=0;whiteSpace=wrap;html=1;fillColor=#e1d5e7;strokeColor=#9673a6;fontSize=10;align=left;verticalAlign=top;" vertex="1" parent="database-layer">
          <mxGeometry x="420" y="40" width="160" height="140" as="geometry" />
        </mxCell>
        
        <mxCell id="signal-lab-table" value="signal_lab_trades&#xa;&#xa;Manual Entry System&#xa;• Validated signals&#xa;• Complete trade data&#xa;• MFE tracking&#xa;• ML training source" style="rounded=0;whiteSpace=wrap;html=1;fillColor=#fff2cc;strokeColor=#d6b656;fontSize=10;align=left;verticalAlign=top;" vertex="1" parent="database-layer">
          <mxGeometry x="20" y="240" width="180" height="120" as="geometry" />
        </mxCell>
        
        <!-- BACKEND API LAYER -->
        <mxCell id="backend-layer" value="BACKEND API ENDPOINTS (Flask/Python)" style="swimlane;fillColor=#ffe6cc;strokeColor=#d79b00;fontSize=16;fontStyle=1" vertex="1" parent="1">
          <mxGeometry x="720" y="400" width="800" height="740" as="geometry" />
        </mxCell>
        
        <!-- V2 API Endpoints -->
        <mxCell id="v2-stats" value="GET /api/v2/stats&#xa;&#xa;Returns:&#xa;• total_signals&#xa;• pending_trades&#xa;• active_trades&#xa;• today_signals" style="rounded=1;whiteSpace=wrap;html=1;fillColor=#dae8fc;strokeColor=#6c8ebf;fontSize=10;align=left;verticalAlign=top;" vertex="1" parent="backend-layer">
          <mxGeometry x="20" y="40" width="180" height="100" as="geometry" />
        </mxCell>

        <mxCell id="v2-active-trades" value="GET /api/v2/active-trades&#xa;&#xa;Returns:&#xa;• All V2 trades&#xa;• Filter by status&#xa;• Real-time updates" style="rounded=1;whiteSpace=wrap;html=1;fillColor=#dae8fc;strokeColor=#6c8ebf;fontSize=10;align=left;verticalAlign=top;" vertex="1" parent="backend-layer">
          <mxGeometry x="220" y="40" width="180" height="100" as="geometry" />
        </mxCell>
        
        <mxCell id="v2-price-current" value="GET /api/v2/price/current&#xa;&#xa;Returns:&#xa;• Latest price&#xa;• Session&#xa;• Timestamp&#xa;• Validates freshness" style="rounded=1;whiteSpace=wrap;html=1;fillColor=#d5e8d4;strokeColor=#82b366;fontSize=10;align=left;verticalAlign=top;" vertex="1" parent="backend-layer">
          <mxGeometry x="420" y="40" width="180" height="100" as="geometry" />
        </mxCell>
        
        <mxCell id="v2-price-stream" value="GET /api/v2/price/stream&#xa;&#xa;Returns:&#xa;• Recent prices&#xa;• Limit parameter&#xa;• Session filtering" style="rounded=1;whiteSpace=wrap;html=1;fillColor=#d5e8d4;strokeColor=#82b366;fontSize=10;align=left;verticalAlign=top;" vertex="1" parent="backend-layer">
          <mxGeometry x="620" y="40" width="160" height="100" as="geometry" />
        </mxCell>
        
        <!-- ML API Endpoints -->
        <mxCell id="ml-train" value="POST /api/nasdaq-train&#xa;&#xa;• Train ML models&#xa;• Random Forest&#xa;• Gradient Boosting&#xa;• Feature engineering" style="rounded=1;whiteSpace=wrap;html=1;fillColor=#f8cecc;strokeColor=#b85450;fontSize=10;align=left;verticalAlign=top;" vertex="1" parent="backend-layer">
          <mxGeometry x="20" y="160" width="180" height="100" as="geometry" />
        </mxCell>

        <mxCell id="ml-predict" value="POST /api/nasdaq-predict&#xa;&#xa;• Get predictions&#xa;• Confidence scores&#xa;• Feature importance&#xa;• Real-time inference" style="rounded=1;whiteSpace=wrap;html=1;fillColor=#f8cecc;strokeColor=#b85450;fontSize=10;align=left;verticalAlign=top;" vertex="1" parent="backend-layer">
          <mxGeometry x="220" y="160" width="180" height="100" as="geometry" />
        </mxCell>
        
        <mxCell id="ml-accuracy" value="GET /api/prediction-accuracy&#xa;&#xa;• Track accuracy&#xa;• Model performance&#xa;• Drift detection" style="rounded=1;whiteSpace=wrap;html=1;fillColor=#f8cecc;strokeColor=#b85450;fontSize=10;align=left;verticalAlign=top;" vertex="1" parent="backend-layer">
          <mxGeometry x="420" y="160" width="180" height="100" as="geometry" />
        </mxCell>
        
        <mxCell id="ai-insights" value="POST /api/ai-insights&#xa;&#xa;• AI trading insights&#xa;• Business advisor&#xa;• Strategy recommendations" style="rounded=1;whiteSpace=wrap;html=1;fillColor=#f8cecc;strokeColor=#b85450;fontSize=10;align=left;verticalAlign=top;" vertex="1" parent="backend-layer">
          <mxGeometry x="620" y="160" width="160" height="100" as="geometry" />
        </mxCell>
        
        <!-- Authentication -->
        <mxCell id="auth-endpoints" value="Authentication&#xa;&#xa;POST /login&#xa;GET /homepage&#xa;@login_required decorator" style="rounded=1;whiteSpace=wrap;html=1;fillColor=#e1d5e7;strokeColor=#9673a6;fontSize=10;align=left;verticalAlign=top;" vertex="1" parent="backend-layer">
          <mxGeometry x="20" y="280" width="180" height="100" as="geometry" />
        </mxCell>

        <!-- WebSocket -->
        <mxCell id="websocket" value="WebSocket Connection&#xa;&#xa;• Real-time updates&#xa;• Signal broadcasting&#xa;• Live price streaming&#xa;• Dashboard sync" style="rounded=1;whiteSpace=wrap;html=1;fillColor=#fff2cc;strokeColor=#d6b656;fontSize=10;align=left;verticalAlign=top;" vertex="1" parent="backend-layer">
          <mxGeometry x="220" y="280" width="180" height="100" as="geometry" />
        </mxCell>
        
        <!-- Health Monitoring -->
        <mxCell id="health-monitor" value="Health Monitoring&#xa;&#xa;• Database health&#xa;• Connection recovery&#xa;• Auto-restart&#xa;• Error logging" style="rounded=1;whiteSpace=wrap;html=1;fillColor=#d5e8d4;strokeColor=#82b366;fontSize=10;align=left;verticalAlign=top;" vertex="1" parent="backend-layer">
          <mxGeometry x="420" y="280" width="180" height="100" as="geometry" />
        </mxCell>
        
        <!-- FRONTEND DASHBOARDS -->
        <mxCell id="frontend-layer" value="FRONTEND DASHBOARDS (HTML/JS)" style="swimlane;fillColor=#d5e8d4;strokeColor=#82b366;fontSize=16;fontStyle=1" vertex="1" parent="1">
          <mxGeometry x="1600" y="40" width="1200" height="1100" as="geometry" />
        </mxCell>
        
        <!-- Main Dashboards -->
        <mxCell id="signal-lab-v2-dash" value="Signal Lab V2 Dashboard&#xa;/signal-lab-v2&#xa;&#xa;• Enhanced FVG signals&#xa;• Real-time price display&#xa;• Trade status tracking&#xa;• Session filtering&#xa;• Stale data detection" style="rounded=1;whiteSpace=wrap;html=1;fillColor=#dae8fc;strokeColor=#6c8ebf;fontSize=11;align=left;verticalAlign=top;fontStyle=1" vertex="1" parent="frontend-layer">
          <mxGeometry x="20" y="40" width="280" height="140" as="geometry" />
        </mxCell>

        <mxCell id="signal-lab-dash" value="Signal Lab Dashboard&#xa;/signal-lab-dashboard&#xa;&#xa;• Manual signal entry&#xa;• Trade validation&#xa;• Performance analytics&#xa;• ML training data source" style="rounded=1;whiteSpace=wrap;html=1;fillColor=#fff2cc;strokeColor=#d6b656;fontSize=11;align=left;verticalAlign=top;fontStyle=1" vertex="1" parent="frontend-layer">
          <mxGeometry x="320" y="40" width="280" height="140" as="geometry" />
        </mxCell>
        
        <mxCell id="ml-dashboard" value="ML Intelligence Hub&#xa;/ml-dashboard&#xa;&#xa;• Model training&#xa;• Predictions&#xa;• Accuracy tracking&#xa;• Feature importance" style="rounded=1;whiteSpace=wrap;html=1;fillColor=#f8cecc;strokeColor=#b85450;fontSize=11;align=left;verticalAlign=top;fontStyle=1" vertex="1" parent="frontend-layer">
          <mxGeometry x="620" y="40" width="280" height="140" as="geometry" />
        </mxCell>
        
        <mxCell id="time-analysis" value="Time Analysis&#xa;/time-analysis&#xa;&#xa;• Session performance&#xa;• Optimal entry times&#xa;• Temporal patterns" style="rounded=1;whiteSpace=wrap;html=1;fillColor=#e1d5e7;strokeColor=#9673a6;fontSize=11;align=left;verticalAlign=top;fontStyle=1" vertex="1" parent="frontend-layer">
          <mxGeometry x="920" y="40" width="260" height="140" as="geometry" />
        </mxCell>
        
        <mxCell id="strategy-optimizer" value="Strategy Optimizer&#xa;/strategy-optimizer&#xa;&#xa;• Backtesting&#xa;• Parameter optimization&#xa;• Risk analysis" style="rounded=1;whiteSpace=wrap;html=1;fillColor=#ffe6cc;strokeColor=#d79b00;fontSize=11;align=left;verticalAlign=top;fontStyle=1" vertex="1" parent="frontend-layer">
          <mxGeometry x="20" y="200" width="280" height="120" as="geometry" />
        </mxCell>

        <mxCell id="strategy-comparison" value="Strategy Comparison&#xa;/strategy-comparison&#xa;&#xa;• Compare strategies&#xa;• Risk metrics&#xa;• Visual analysis" style="rounded=1;whiteSpace=wrap;html=1;fillColor=#ffe6cc;strokeColor=#d79b00;fontSize=11;align=left;verticalAlign=top;fontStyle=1" vertex="1" parent="frontend-layer">
          <mxGeometry x="320" y="200" width="280" height="120" as="geometry" />
        </mxCell>
        
        <mxCell id="ai-advisor" value="AI Business Advisor&#xa;/ai-business-advisor&#xa;&#xa;• AI insights&#xa;• Trading recommendations&#xa;• Business intelligence" style="rounded=1;whiteSpace=wrap;html=1;fillColor=#f8cecc;strokeColor=#b85450;fontSize=11;align=left;verticalAlign=top;fontStyle=1" vertex="1" parent="frontend-layer">
          <mxGeometry x="620" y="200" width="280" height="120" as="geometry" />
        </mxCell>
        
        <mxCell id="prop-portfolio" value="Prop Portfolio&#xa;/prop-portfolio&#xa;&#xa;• Portfolio management&#xa;• Risk allocation&#xa;• Performance tracking" style="rounded=1;whiteSpace=wrap;html=1;fillColor=#d5e8d4;strokeColor=#82b366;fontSize=11;align=left;verticalAlign=top;fontStyle=1" vertex="1" parent="frontend-layer">
          <mxGeometry x="920" y="200" width="260" height="120" as="geometry" />
        </mxCell>
        
        <mxCell id="trade-manager" value="Trade Manager&#xa;/trade-manager&#xa;&#xa;• Trade execution&#xa;• Position management&#xa;• Order tracking" style="rounded=1;whiteSpace=wrap;html=1;fillColor=#dae8fc;strokeColor=#6c8ebf;fontSize=11;align=left;verticalAlign=top;fontStyle=1" vertex="1" parent="frontend-layer">
          <mxGeometry x="20" y="340" width="280" height="120" as="geometry" />
        </mxCell>

        <mxCell id="financial-summary" value="Financial Summary&#xa;/financial-summary&#xa;&#xa;• P&amp;L tracking&#xa;• Performance metrics&#xa;• Financial reports" style="rounded=1;whiteSpace=wrap;html=1;fillColor=#fff2cc;strokeColor=#d6b656;fontSize=11;align=left;verticalAlign=top;fontStyle=1" vertex="1" parent="frontend-layer">
          <mxGeometry x="320" y="340" width="280" height="120" as="geometry" />
        </mxCell>
        
        <mxCell id="reporting-hub" value="Reporting Hub&#xa;/reporting-hub&#xa;&#xa;• Comprehensive reports&#xa;• Analytics&#xa;• Export functionality" style="rounded=1;whiteSpace=wrap;html=1;fillColor=#e1d5e7;strokeColor=#9673a6;fontSize=11;align=left;verticalAlign=top;fontStyle=1" vertex="1" parent="frontend-layer">
          <mxGeometry x="620" y="340" width="280" height="120" as="geometry" />
        </mxCell>
        
        <mxCell id="webhook-monitor" value="Webhook Monitor&#xa;/webhook-monitor&#xa;&#xa;• Webhook health&#xa;• Statistics&#xa;• Error tracking" style="rounded=1;whiteSpace=wrap;html=1;fillColor=#f8cecc;strokeColor=#b85450;fontSize=11;align=left;verticalAlign=top;fontStyle=1" vertex="1" parent="frontend-layer">
          <mxGeometry x="920" y="340" width="260" height="120" as="geometry" />
        </mxCell>
        
        <!-- CONNECTIONS -->
        <!-- TradingView to Webhooks -->
        <mxCell id="conn1" style="edgeStyle=orthogonalEdgeStyle;rounded=0;orthogonalLoop=1;jettySize=auto;html=1;strokeWidth=3;strokeColor=#6c8ebf;" edge="1" parent="1" source="fvg-indicator" target="v2-webhook">
          <mxGeometry relative="1" as="geometry" />
        </mxCell>

        <mxCell id="conn2" style="edgeStyle=orthogonalEdgeStyle;rounded=0;orthogonalLoop=1;jettySize=auto;html=1;strokeWidth=3;strokeColor=#82b366;" edge="1" parent="1" source="price-streamer" target="price-webhook-endpoint">
          <mxGeometry relative="1" as="geometry" />
        </mxCell>
        
        <!-- Webhooks to Database -->
        <mxCell id="conn3" style="edgeStyle=orthogonalEdgeStyle;rounded=0;orthogonalLoop=1;jettySize=auto;html=1;strokeWidth=2;strokeColor=#6c8ebf;" edge="1" parent="1" source="v2-webhook" target="v2-trades-table">
          <mxGeometry relative="1" as="geometry" />
        </mxCell>
        
        <mxCell id="conn4" style="edgeStyle=orthogonalEdgeStyle;rounded=0;orthogonalLoop=1;jettySize=auto;html=1;strokeWidth=2;strokeColor=#82b366;" edge="1" parent="1" source="price-webhook-endpoint" target="realtime-prices-table">
          <mxGeometry relative="1" as="geometry" />
        </mxCell>
        
        <!-- Database to Backend APIs -->
        <mxCell id="conn5" style="edgeStyle=orthogonalEdgeStyle;rounded=0;orthogonalLoop=1;jettySize=auto;html=1;strokeWidth=2;strokeColor=#6c8ebf;dashed=1;" edge="1" parent="1" source="v2-trades-table" target="v2-stats">
          <mxGeometry relative="1" as="geometry" />
        </mxCell>
        
        <mxCell id="conn6" style="edgeStyle=orthogonalEdgeStyle;rounded=0;orthogonalLoop=1;jettySize=auto;html=1;strokeWidth=2;strokeColor=#82b366;dashed=1;" edge="1" parent="1" source="realtime-prices-table" target="v2-price-current">
          <mxGeometry relative="1" as="geometry" />
        </mxCell>
        
        <!-- Backend to Frontend -->
        <mxCell id="conn7" style="edgeStyle=orthogonalEdgeStyle;rounded=0;orthogonalLoop=1;jettySize=auto;html=1;strokeWidth=2;strokeColor=#6c8ebf;dashed=1;" edge="1" parent="1" source="v2-stats" target="signal-lab-v2-dash">
          <mxGeometry relative="1" as="geometry" />
        </mxCell>

        <mxCell id="conn8" style="edgeStyle=orthogonalEdgeStyle;rounded=0;orthogonalLoop=1;jettySize=auto;html=1;strokeWidth=2;strokeColor=#82b366;dashed=1;" edge="1" parent="1" source="v2-price-current" target="signal-lab-v2-dash">
          <mxGeometry relative="1" as="geometry" />
        </mxCell>
        
        <!-- ML Connections -->
        <mxCell id="conn9" style="edgeStyle=orthogonalEdgeStyle;rounded=0;orthogonalLoop=1;jettySize=auto;html=1;strokeWidth=2;strokeColor=#b85450;dashed=1;" edge="1" parent="1" source="signal-lab-table" target="ml-train">
          <mxGeometry relative="1" as="geometry" />
        </mxCell>
        
        <mxCell id="conn10" style="edgeStyle=orthogonalEdgeStyle;rounded=0;orthogonalLoop=1;jettySize=auto;html=1;strokeWidth=2;strokeColor=#b85450;dashed=1;" edge="1" parent="1" source="ml-predict" target="ml-dashboard">
          <mxGeometry relative="1" as="geometry" />
        </mxCell>
        
        <!-- WebSocket Connections -->
        <mxCell id="conn11" style="edgeStyle=orthogonalEdgeStyle;rounded=0;orthogonalLoop=1;jettySize=auto;html=1;strokeWidth=2;strokeColor=#d6b656;dashed=1;dashPattern=5 5;" edge="1" parent="1" source="websocket" target="signal-lab-v2-dash">
          <mxGeometry relative="1" as="geometry" />
        </mxCell>
        
        <!-- LEGEND -->
        <mxCell id="legend" value="LEGEND" style="swimlane;fillColor=#f5f5f5;strokeColor=#666666;fontSize=14;fontStyle=1;fontColor=#333333;" vertex="1" parent="1">
          <mxGeometry x="720" y="40" width="800" height="300" as="geometry" />
        </mxCell>
        
        <mxCell id="legend-webhook" value="Solid Line = Webhook POST" style="text;html=1;strokeColor=#6c8ebf;fillColor=none;align=left;verticalAlign=middle;whiteSpace=wrap;rounded=0;fontSize=12;strokeWidth=3;" vertex="1" parent="legend">
          <mxGeometry x="20" y="40" width="200" height="30" as="geometry" />
        </mxCell>

        <mxCell id="legend-api" value="Dashed Line = API GET" style="text;html=1;strokeColor=#82b366;fillColor=none;align=left;verticalAlign=middle;whiteSpace=wrap;rounded=0;fontSize=12;strokeWidth=2;dashed=1;" vertex="1" parent="legend">
          <mxGeometry x="20" y="80" width="200" height="30" as="geometry" />
        </mxCell>
        
        <mxCell id="legend-websocket" value="Dotted Line = WebSocket" style="text;html=1;strokeColor=#d6b656;fillColor=none;align=left;verticalAlign=middle;whiteSpace=wrap;rounded=0;fontSize=12;strokeWidth=2;dashed=1;dashPattern=5 5;" vertex="1" parent="legend">
          <mxGeometry x="20" y="120" width="200" height="30" as="geometry" />
        </mxCell>
        
        <mxCell id="legend-colors" value="COLOR CODING:&#xa;&#xa;🔵 Blue = V2 Signal System&#xa;🟢 Green = Price Streaming&#xa;🔴 Red = ML/AI Features&#xa;🟡 Yellow = Manual Entry&#xa;🟣 Purple = Legacy/V1" style="text;html=1;strokeColor=none;fillColor=none;align=left;verticalAlign=top;whiteSpace=wrap;rounded=0;fontSize=11;" vertex="1" parent="legend">
          <mxGeometry x="20" y="160" width="300" height="120" as="geometry" />
        </mxCell>
        
        <mxCell id="legend-urls" value="BASE URL:&#xa;https://web-production-cd33.up.railway.app&#xa;&#xa;DEPLOYMENT:&#xa;• Railway Cloud Platform&#xa;• PostgreSQL Database&#xa;• Auto-deploy from GitHub&#xa;• 2-3 minute deployment time" style="text;html=1;strokeColor=none;fillColor=none;align=left;verticalAlign=top;whiteSpace=wrap;rounded=0;fontSize=11;" vertex="1" parent="legend">
          <mxGeometry x="400" y="40" width="380" height="120" as="geometry" />
        </mxCell>
        
        <mxCell id="legend-sessions" value="TRADING SESSIONS (EST):&#xa;• ASIA: 20:00-23:59&#xa;• LONDON: 00:00-05:59&#xa;• NY PRE: 06:00-08:29&#xa;• NY AM: 08:30-11:59 (Priority)&#xa;• NY LUNCH: 12:00-12:59&#xa;• NY PM: 13:00-15:59 (Priority)&#xa;• INVALID: 16:00-19:59" style="text;html=1;strokeColor=none;fillColor=none;align=left;verticalAlign=top;whiteSpace=wrap;rounded=0;fontSize=10;" vertex="1" parent="legend">
          <mxGeometry x="400" y="170" width="380" height="110" as="geometry" />
        </mxCell>

        <!-- KEY FEATURES BOX -->
        <mxCell id="features" value="KEY PLATFORM FEATURES" style="swimlane;fillColor=#dae8fc;strokeColor=#6c8ebf;fontSize=14;fontStyle=1" vertex="1" parent="1">
          <mxGeometry x="1600" y="1200" width="1200" height="300" as="geometry" />
        </mxCell>
        
        <mxCell id="feature-automation" value="AUTOMATION&#xa;&#xa;• Dual indicator system&#xa;• Real-time webhooks&#xa;• Auto signal processing&#xa;• MFE tracking&#xa;• Break-even logic" style="rounded=1;whiteSpace=wrap;html=1;fillColor=#dae8fc;strokeColor=#6c8ebf;fontSize=10;align=left;verticalAlign=top;" vertex="1" parent="features">
          <mxGeometry x="20" y="40" width="220" height="120" as="geometry" />
        </mxCell>
        
        <mxCell id="feature-ml" value="MACHINE LEARNING&#xa;&#xa;• Random Forest models&#xa;• Gradient Boosting&#xa;• Real-time predictions&#xa;• Accuracy tracking&#xa;• Feature importance" style="rounded=1;whiteSpace=wrap;html=1;fillColor=#f8cecc;strokeColor=#b85450;fontSize=10;align=left;verticalAlign=top;" vertex="1" parent="features">
          <mxGeometry x="260" y="40" width="220" height="120" as="geometry" />
        </mxCell>
        
        <mxCell id="feature-realtime" value="REAL-TIME DATA&#xa;&#xa;• 1-second price updates&#xa;• WebSocket streaming&#xa;• Live MFE tracking&#xa;• Session filtering&#xa;• Stale data detection" style="rounded=1;whiteSpace=wrap;html=1;fillColor=#d5e8d4;strokeColor=#82b366;fontSize=10;align=left;verticalAlign=top;" vertex="1" parent="features">
          <mxGeometry x="500" y="40" width="220" height="120" as="geometry" />
        </mxCell>
        
        <mxCell id="feature-analytics" value="ANALYTICS&#xa;&#xa;• Session performance&#xa;• Time analysis&#xa;• Strategy optimization&#xa;• Risk metrics&#xa;• Backtesting" style="rounded=1;whiteSpace=wrap;html=1;fillColor=#fff2cc;strokeColor=#d6b656;fontSize=10;align=left;verticalAlign=top;" vertex="1" parent="features">
          <mxGeometry x="740" y="40" width="220" height="120" as="geometry" />
        </mxCell>

        <mxCell id="feature-monitoring" value="MONITORING&#xa;&#xa;• Health checks&#xa;• Auto-recovery&#xa;• Error logging&#xa;• Webhook stats&#xa;• Performance tracking" style="rounded=1;whiteSpace=wrap;html=1;fillColor=#e1d5e7;strokeColor=#9673a6;fontSize=10;align=left;verticalAlign=top;" vertex="1" parent="features">
          <mxGeometry x="980" y="40" width="200" height="120" as="geometry" />
        </mxCell>
        
        <!-- DATA FLOW ANNOTATIONS -->
        <mxCell id="flow1" value="1. TradingView sends signals" style="text;html=1;strokeColor=none;fillColor=#fff2cc;align=center;verticalAlign=middle;whiteSpace=wrap;rounded=1;fontSize=10;fontStyle=2" vertex="1" parent="1">
          <mxGeometry x="680" y="200" width="160" height="30" as="geometry" />
        </mxCell>
        
        <mxCell id="flow2" value="2. Webhooks store in DB" style="text;html=1;strokeColor=none;fillColor=#fff2cc;align=center;verticalAlign=middle;whiteSpace=wrap;rounded=1;fontSize=10;fontStyle=2" vertex="1" parent="1">
          <mxGeometry x="680" y="500" width="160" height="30" as="geometry" />
        </mxCell>
        
        <mxCell id="flow3" value="3. APIs query database" style="text;html=1;strokeColor=none;fillColor=#fff2cc;align=center;verticalAlign=middle;whiteSpace=wrap;rounded=1;fontSize=10;fontStyle=2" vertex="1" parent="1">
          <mxGeometry x="680" y="800" width="160" height="30" as="geometry" />
        </mxCell>
        
        <mxCell id="flow4" value="4. Dashboards display data" style="text;html=1;strokeColor=none;fillColor=#fff2cc;align=center;verticalAlign=middle;whiteSpace=wrap;rounded=1;fontSize=10;fontStyle=2" vertex="1" parent="1">
          <mxGeometry x="1400" y="600" width="160" height="30" as="geometry" />
        </mxCell>
        
        <mxCell id="flow5" value="5. WebSocket real-time updates" style="text;html=1;strokeColor=none;fillColor=#fff2cc;align=center;verticalAlign=middle;whiteSpace=wrap;rounded=1;fontSize=10;fontStyle=2" vertex="1" parent="1">
          <mxGeometry x="1400" y="800" width="180" height="30" as="geometry" />
        </mxCell>

        <!-- TITLE -->
        <mxCell id="title" value="NASDAQ DAY TRADING ANALYTICS PLATFORM&#xa;Complete System Architecture" style="text;html=1;strokeColor=none;fillColor=none;align=center;verticalAlign=middle;whiteSpace=wrap;rounded=0;fontSize=24;fontStyle=1;fontColor=#3b82f6;" vertex="1" parent="1">
          <mxGeometry x="40" y="-60" width="2760" height="80" as="geometry" />
        </mxCell>
        
        <mxCell id="subtitle" value="Production URL: https://web-production-cd33.up.railway.app | Railway Cloud Platform | PostgreSQL Database | Real-Time WebSocket | ML Intelligence" style="text;html=1;strokeColor=none;fillColor=none;align=center;verticalAlign=middle;whiteSpace=wrap;rounded=0;fontSize=12;fontStyle=2;fontColor=#666666;" vertex="1" parent="1">
          <mxGeometry x="40" y="-20" width="2760" height="40" as="geometry" />
        </mxCell>
        
      </root>
    </mxGraphModel>
  </diagram>
</mxfile>

        
        <!-- CLOUD INFRASTRUCTURE LAYER -->
        <mxCell id="cloud-layer" value="☁️ CLOUD INFRASTRUCTURE" style="swimlane;fillColor=#f5f5f5;strokeColor=#666666;fontSize=18;fontStyle=1;fontColor=#333333;" vertex="1" parent="1">
          <mxGeometry x="40" y="1200" width="1480" height="400" as="geometry" />
        </mxCell>
        
        <!-- Railway Platform -->
        <mxCell id="railway-platform" value="RAILWAY CLOUD PLATFORM&#xa;&#xa;Production Environment&#xa;• Auto-deploy from GitHub&#xa;• Environment variables&#xa;• Health monitoring&#xa;• Auto-restart on failure&#xa;• HTTPS/SSL enabled&#xa;• Custom domain support" style="rounded=1;whiteSpace=wrap;html=1;fillColor=#dae8fc;strokeColor=#6c8ebf;fontSize=12;align=left;verticalAlign=top;fontStyle=1" vertex="1" parent="cloud-layer">
          <mxGeometry x="20" y="40" width="340" height="160" as="geometry" />
        </mxCell>
        
        <!-- PostgreSQL Database -->
        <mxCell id="railway-postgres" value="POSTGRESQL DATABASE&#xa;(Railway Managed)&#xa;&#xa;• Automatic backups&#xa;• Connection pooling&#xa;• High availability&#xa;• Encrypted connections&#xa;• DATABASE_URL env var&#xa;• Auto-scaling storage" style="rounded=1;whiteSpace=wrap;html=1;fillColor=#d5e8d4;strokeColor=#82b366;fontSize=12;align=left;verticalAlign=top;fontStyle=1" vertex="1" parent="cloud-layer">
          <mxGeometry x="380" y="40" width="340" height="160" as="geometry" />
        </mxCell>
        
        <!-- GitHub Integration -->
        <mxCell id="github-integration" value="GITHUB INTEGRATION&#xa;&#xa;• Version control&#xa;• Auto-deploy on push&#xa;• Branch: main&#xa;• Deploy time: 2-3 minutes&#xa;• Rollback support&#xa;• Commit history" style="rounded=1;whiteSpace=wrap;html=1;fillColor=#fff2cc;strokeColor=#d6b656;fontSize=12;align=left;verticalAlign=top;fontStyle=1" vertex="1" parent="cloud-layer">
          <mxGeometry x="740" y="40" width="340" height="160" as="geometry" />
        </mxCell>
        
        <!-- TradingView Cloud -->
        <mxCell id="tradingview-cloud" value="TRADINGVIEW CLOUD&#xa;&#xa;• Pine Script indicators&#xa;• Alert system&#xa;• Webhook delivery&#xa;• 15 alerts/3min limit&#xa;• Real-time data feed&#xa;• Chart hosting" style="rounded=1;whiteSpace=wrap;html=1;fillColor=#e1d5e7;strokeColor=#9673a6;fontSize=12;align=left;verticalAlign=top;fontStyle=1" vertex="1" parent="cloud-layer">
          <mxGeometry x="1100" y="40" width="340" height="160" as="geometry" />
        </mxCell>
        
        <!-- Deployment Flow -->
        <mxCell id="deploy-flow" value="DEPLOYMENT WORKFLOW" style="rounded=1;whiteSpace=wrap;html=1;fillColor=#ffe6cc;strokeColor=#d79b00;fontSize=12;align=left;verticalAlign=top;fontStyle=1" vertex="1" parent="cloud-layer">
          <mxGeometry x="20" y="220" width="1420" height="160" as="geometry" />
        </mxCell>
        
        <mxCell id="deploy-step1" value="1. LOCAL DEV&#xa;Code changes&#xa;Test locally" style="rounded=1;whiteSpace=wrap;html=1;fillColor=#dae8fc;strokeColor=#6c8ebf;fontSize=10;align=center;" vertex="1" parent="cloud-layer">
          <mxGeometry x="40" y="260" width="120" height="80" as="geometry" />
        </mxCell>
        
        <mxCell id="deploy-step2" value="2. GITHUB&#xa;Commit&#xa;Push to main" style="rounded=1;whiteSpace=wrap;html=1;fillColor=#fff2cc;strokeColor=#d6b656;fontSize=10;align=center;" vertex="1" parent="cloud-layer">
          <mxGeometry x="200" y="260" width="120" height="80" as="geometry" />
        </mxCell>

        
        <mxCell id="deploy-step3" value="3. AUTO-DEPLOY&#xa;Railway detects&#xa;Builds &amp; deploys" style="rounded=1;whiteSpace=wrap;html=1;fillColor=#dae8fc;strokeColor=#6c8ebf;fontSize=10;align=center;" vertex="1" parent="cloud-layer">
          <mxGeometry x="360" y="260" width="120" height="80" as="geometry" />
        </mxCell>
        
        <mxCell id="deploy-step4" value="4. DATABASE&#xa;Migrations&#xa;Schema updates" style="rounded=1;whiteSpace=wrap;html=1;fillColor=#d5e8d4;strokeColor=#82b366;fontSize=10;align=center;" vertex="1" parent="cloud-layer">
          <mxGeometry x="520" y="260" width="120" height="80" as="geometry" />
        </mxCell>
        
        <mxCell id="deploy-step5" value="5. HEALTH CHECK&#xa;Auto-restart&#xa;Monitoring" style="rounded=1;whiteSpace=wrap;html=1;fillColor=#f8cecc;strokeColor=#b85450;fontSize=10;align=center;" vertex="1" parent="cloud-layer">
          <mxGeometry x="680" y="260" width="120" height="80" as="geometry" />
        </mxCell>
        
        <mxCell id="deploy-step6" value="6. PRODUCTION&#xa;Live at Railway&#xa;Ready for traffic" style="rounded=1;whiteSpace=wrap;html=1;fillColor=#d5e8d4;strokeColor=#82b366;fontSize=10;align=center;" vertex="1" parent="cloud-layer">
          <mxGeometry x="840" y="260" width="120" height="80" as="geometry" />
        </mxCell>
        
        <mxCell id="deploy-step7" value="7. TRADINGVIEW&#xa;Webhooks active&#xa;Sending signals" style="rounded=1;whiteSpace=wrap;html=1;fillColor=#e1d5e7;strokeColor=#9673a6;fontSize=10;align=center;" vertex="1" parent="cloud-layer">
          <mxGeometry x="1000" y="260" width="120" height="80" as="geometry" />
        </mxCell>
        
        <mxCell id="deploy-step8" value="8. VALIDATION&#xa;Test endpoints&#xa;Verify data flow" style="rounded=1;whiteSpace=wrap;html=1;fillColor=#fff2cc;strokeColor=#d6b656;fontSize=10;align=center;" vertex="1" parent="cloud-layer">
          <mxGeometry x="1160" y="260" width="120" height="80" as="geometry" />
        </mxCell>
        
        <!-- Deployment arrows -->
        <mxCell id="deploy-arrow1" style="edgeStyle=orthogonalEdgeStyle;rounded=0;orthogonalLoop=1;jettySize=auto;html=1;strokeWidth=2;strokeColor=#666666;" edge="1" parent="cloud-layer" source="deploy-step1" target="deploy-step2">
          <mxGeometry relative="1" as="geometry" />
        </mxCell>
        <mxCell id="deploy-arrow2" style="edgeStyle=orthogonalEdgeStyle;rounded=0;orthogonalLoop=1;jettySize=auto;html=1;strokeWidth=2;strokeColor=#666666;" edge="1" parent="cloud-layer" source="deploy-step2" target="deploy-step3">
          <mxGeometry relative="1" as="geometry" />
        </mxCell>
        <mxCell id="deploy-arrow3" style="edgeStyle=orthogonalEdgeStyle;rounded=0;orthogonalLoop=1;jettySize=auto;html=1;strokeWidth=2;strokeColor=#666666;" edge="1" parent="cloud-layer" source="deploy-step3" target="deploy-step4">
          <mxGeometry relative="1" as="geometry" />
        </mxCell>
        <mxCell id="deploy-arrow4" style="edgeStyle=orthogonalEdgeStyle;rounded=0;orthogonalLoop=1;jettySize=auto;html=1;strokeWidth=2;strokeColor=#666666;" edge="1" parent="cloud-layer" source="deploy-step4" target="deploy-step5">
          <mxGeometry relative="1" as="geometry" />
        </mxCell>
        <mxCell id="deploy-arrow5" style="edgeStyle=orthogonalEdgeStyle;rounded=0;orthogonalLoop=1;jettySize=auto;html=1;strokeWidth=2;strokeColor=#666666;" edge="1" parent="cloud-layer" source="deploy-step5" target="deploy-step6">
          <mxGeometry relative="1" as="geometry" />
        </mxCell>
        <mxCell id="deploy-arrow6" style="edgeStyle=orthogonalEdgeStyle;rounded=0;orthogonalLoop=1;jettySize=auto;html=1;strokeWidth=2;strokeColor=#666666;" edge="1" parent="cloud-layer" source="deploy-step6" target="deploy-step7">
          <mxGeometry relative="1" as="geometry" />
        </mxCell>
        <mxCell id="deploy-arrow7" style="edgeStyle=orthogonalEdgeStyle;rounded=0;orthogonalLoop=1;jettySize=auto;html=1;strokeWidth=2;strokeColor=#666666;" edge="1" parent="cloud-layer" source="deploy-step7" target="deploy-step8">
          <mxGeometry relative="1" as="geometry" />
        </mxCell>
        
        <!-- ENVIRONMENT VARIABLES BOX -->
        <mxCell id="env-vars" value="ENVIRONMENT VARIABLES (Railway)" style="swimlane;fillColor=#fff2cc;strokeColor=#d6b656;fontSize=14;fontStyle=1" vertex="1" parent="1">
          <mxGeometry x="40" y="1640" width="600" height="200" as="geometry" />
        </mxCell>
        
        <mxCell id="env-database" value="DATABASE_URL&#xa;postgresql://user:pass@host:port/db" style="rounded=0;whiteSpace=wrap;html=1;fillColor=#d5e8d4;strokeColor=#82b366;fontSize=11;align=left;fontFamily=Courier New;" vertex="1" parent="env-vars">
          <mxGeometry x="20" y="40" width="560" height="40" as="geometry" />
        </mxCell>
        
        <mxCell id="env-flask" value="FLASK_SECRET_KEY&#xa;[secure random key]" style="rounded=0;whiteSpace=wrap;html=1;fillColor=#dae8fc;strokeColor=#6c8ebf;fontSize=11;align=left;fontFamily=Courier New;" vertex="1" parent="env-vars">
          <mxGeometry x="20" y="90" width="560" height="40" as="geometry" />
        </mxCell>
        
        <mxCell id="env-production" value="FLASK_ENV=production" style="rounded=0;whiteSpace=wrap;html=1;fillColor=#f8cecc;strokeColor=#b85450;fontSize=11;align=left;fontFamily=Courier New;" vertex="1" parent="env-vars">
          <mxGeometry x="20" y="140" width="560" height="40" as="geometry" />
        </mxCell>

        
        <!-- CLOUD WORKFLOW BOX -->
        <mxCell id="cloud-workflow" value="☁️ COMPLETE CLOUD WORKFLOW" style="swimlane;fillColor=#e1d5e7;strokeColor=#9673a6;fontSize=14;fontStyle=1" vertex="1" parent="1">
          <mxGeometry x="680" y="1640" width="840" height="200" as="geometry" />
        </mxCell>
        
        <mxCell id="workflow-tradingview" value="1. TRADINGVIEW CLOUD&#xa;Indicator fires → Webhook POST" style="rounded=1;whiteSpace=wrap;html=1;fillColor=#e1d5e7;strokeColor=#9673a6;fontSize=10;align=center;" vertex="1" parent="cloud-workflow">
          <mxGeometry x="20" y="40" width="180" height="60" as="geometry" />
        </mxCell>
        
        <mxCell id="workflow-railway" value="2. RAILWAY CLOUD&#xa;Receives webhook → Processes" style="rounded=1;whiteSpace=wrap;html=1;fillColor=#dae8fc;strokeColor=#6c8ebf;fontSize=10;align=center;" vertex="1" parent="cloud-workflow">
          <mxGeometry x="220" y="40" width="180" height="60" as="geometry" />
        </mxCell>
        
        <mxCell id="workflow-postgres" value="3. POSTGRESQL CLOUD&#xa;Stores data → Indexes" style="rounded=1;whiteSpace=wrap;html=1;fillColor=#d5e8d4;strokeColor=#82b366;fontSize=10;align=center;" vertex="1" parent="cloud-workflow">
          <mxGeometry x="420" y="40" width="180" height="60" as="geometry" />
        </mxCell>
        
        <mxCell id="workflow-api" value="4. BACKEND APIs&#xa;Query data → Process" style="rounded=1;whiteSpace=wrap;html=1;fillColor=#fff2cc;strokeColor=#d6b656;fontSize=10;align=center;" vertex="1" parent="cloud-workflow">
          <mxGeometry x="620" y="40" width="180" height="60" as="geometry" />
        </mxCell>
        
        <mxCell id="workflow-frontend" value="5. FRONTEND DASHBOARDS&#xa;Fetch via API → Display" style="rounded=1;whiteSpace=wrap;html=1;fillColor=#ffe6cc;strokeColor=#d79b00;fontSize=10;align=center;" vertex="1" parent="cloud-workflow">
          <mxGeometry x="20" y="120" width="180" height="60" as="geometry" />
        </mxCell>
        
        <mxCell id="workflow-websocket" value="6. WEBSOCKET CLOUD&#xa;Broadcast → Real-time updates" style="rounded=1;whiteSpace=wrap;html=1;fillColor=#f8cecc;strokeColor=#b85450;fontSize=10;align=center;" vertex="1" parent="cloud-workflow">
          <mxGeometry x="220" y="120" width="180" height="60" as="geometry" />
        </mxCell>
        
        <mxCell id="workflow-monitoring" value="7. HEALTH MONITORING&#xa;Auto-recovery → Logging" style="rounded=1;whiteSpace=wrap;html=1;fillColor=#d5e8d4;strokeColor=#82b366;fontSize=10;align=center;" vertex="1" parent="cloud-workflow">
          <mxGeometry x="420" y="120" width="180" height="60" as="geometry" />
        </mxCell>
        
        <mxCell id="workflow-complete" value="8. COMPLETE CYCLE&#xa;All cloud-based → No local deps" style="rounded=1;whiteSpace=wrap;html=1;fillColor=#dae8fc;strokeColor=#6c8ebf;fontSize=10;align=center;fontStyle=1" vertex="1" parent="cloud-workflow">
          <mxGeometry x="620" y="120" width="180" height="60" as="geometry" />
        </mxCell>
        
        <!-- Update title to include cloud -->
        <mxCell id="title-updated" value="NASDAQ DAY TRADING ANALYTICS PLATFORM&#xa;Complete Cloud-Based System Architecture" style="text;html=1;strokeColor=none;fillColor=none;align=center;verticalAlign=middle;whiteSpace=wrap;rounded=0;fontSize=24;fontStyle=1;fontColor=#3b82f6;" vertex="1" parent="1">
          <mxGeometry x="40" y="-60" width="2760" height="80" as="geometry" />
        </mxCell>
        
        <mxCell id="subtitle-updated" value="☁️ 100% Cloud Infrastructure | Railway Platform | PostgreSQL Database | TradingView Integration | GitHub Auto-Deploy | Real-Time WebSocket | ML Intelligence" style="text;html=1;strokeColor=none;fillColor=none;align=center;verticalAlign=middle;whiteSpace=wrap;rounded=0;fontSize=12;fontStyle=2;fontColor=#666666;" vertex="1" parent="1">
          <mxGeometry x="40" y="-20" width="2760" height="40" as="geometry" />
        </mxCell>
        
        <!-- Cloud annotation -->
        <mxCell id="cloud-note" value="☁️ CLOUD-FIRST ARCHITECTURE&#xa;&#xa;• Zero local dependencies&#xa;• Railway production environment&#xa;• PostgreSQL managed database&#xa;• GitHub auto-deployment&#xa;• TradingView webhook integration&#xa;• 100% cloud-based workflow" style="text;html=1;strokeColor=#6c8ebf;fillColor=#dae8fc;align=left;verticalAlign=top;whiteSpace=wrap;rounded=1;fontSize=11;fontStyle=1" vertex="1" parent="1">
          <mxGeometry x="1600" y="1640" width="280" height="200" as="geometry" />
        </mxCell>
